<?xml version="1.0" encoding="iso-8859-1"?>
<!-- Uploaded to: SVG Repo, www.svgrepo.com, Generator: SVG Repo Mixer Tools -->
<svg fill="#000000" height="800px" width="800px" version="1.1" id="Layer_1" xmlns="http://www.w3.org/2000/svg" xmlns:xlink="http://www.w3.org/1999/xlink" 
	 viewBox="0 0 512 512" xml:space="preserve">
<g>
	<g>
		<circle cx="221.091" cy="174.545" r="11.636"/>
	</g>
</g>
<g>
	<g>
		<circle cx="290.909" cy="174.545" r="11.636"/>
	</g>
</g>
<g>
	<g>
		<path d="M418.909,108.218V34.909c0-5.818-4.655-10.473-9.309-11.636L258.327,0c-1.164,0-2.327,0-3.491,0L103.564,23.273
			c-5.818,1.164-10.473,5.818-10.473,11.636c0,5.818,4.655,10.473,9.309,11.636l37.236,5.818V128
			c0,23.273,8.145,77.964,9.309,79.127c2.327,19.782,10.473,38.4,22.109,53.527l2.327,3.491c19.782,24.436,50.036,38.4,82.618,38.4
			c32.582,0,61.673-13.964,82.618-38.4l2.327-3.491c12.8-15.127,19.782-33.745,22.109-52.364c0,0,3.491-22.109,5.818-44.218
			c1.164-5.818-3.491-11.636-10.473-12.8s-11.636,3.491-12.8,10.473c-2.327,20.945-5.818,43.055-5.818,43.055
			c-1.164,15.127-8.146,29.091-17.455,40.727L320,249.018c-15.127,19.782-38.4,30.255-64,30.255c-25.6,0-48.873-10.473-64-30.255
			l-2.327-3.491c-9.309-11.636-16.291-25.6-17.455-41.891c0,0-9.309-54.691-9.309-76.8V55.855l90.764,13.964
			c1.164,0,1.164,0,2.327,0s1.164,0,2.327,0l90.764-13.964v51.2c-48.873,10.473-108.218,11.636-161.745,4.655
			c-5.818-1.164-12.8,3.491-12.8,9.309c-1.164,5.818,3.491,12.8,9.309,12.8c23.273,3.491,46.545,4.655,70.982,4.655
			c37.236,0,75.636-3.491,108.218-11.636c4.655-1.164,9.309-5.818,9.309-11.636V52.364l23.273-3.491v59.345
			C388.655,111.709,384,119.855,384,128c0,12.8,10.473,23.273,23.273,23.273c12.8,0,23.273-10.473,23.273-23.273
			C430.545,119.855,425.891,111.709,418.909,108.218z M256,46.545l-74.473-11.636L256,23.273l74.473,11.636L256,46.545z"/>
	</g>
</g>
<g>
	<g>
		<path d="M407.273,342.109l-79.127-16.291c-3.491-1.164-6.982,0-9.309,2.327l-47.709,39.564c-8.146,6.982-20.945,6.982-30.255,0
			c0,0-1.164,0-1.164-1.164l-24.436-16.291c-5.818-3.491-12.8-2.327-16.291,3.491s-2.327,12.8,3.491,16.291l23.273,16.291
			c5.818,4.655,11.636,6.982,17.455,9.309v58.182c0,6.982,4.655,11.636,11.636,11.636s11.636-4.655,11.636-11.636v-58.182
			c6.982-1.164,12.8-4.655,18.618-9.309l43.055-36.073l73.309,15.127c16.291,3.491,27.927,17.455,27.927,33.745v77.964
			c0,6.982-4.655,11.636-11.636,11.636H93.091c-6.982,0-11.636-4.655-11.636-11.636v-77.964c0-16.291,11.636-31.418,27.927-33.745
			l79.127-16.291c5.818-1.164,10.473-6.982,9.309-13.964c-1.164-5.818-6.982-10.473-13.964-9.309l-79.127,16.291
			c-26.764,5.818-46.545,29.091-46.545,57.018v77.964c0,19.782,15.127,34.909,34.909,34.909h325.818
			c19.782,0,34.909-15.127,34.909-34.909v-77.964C453.818,371.2,434.036,346.764,407.273,342.109z"/>
	</g>
</g>
<g>
	<g>
		<path d="M267.636,221.091h-23.273c-6.982,0-11.636,4.655-11.636,11.636s4.655,11.636,11.636,11.636h23.273
			c6.982,0,11.636-4.655,11.636-11.636S274.618,221.091,267.636,221.091z"/>
	</g>
</g>
</svg>